<svg width="35" height="35" viewBox="0 0 35 35" fill="none" xmlns="http://www.w3.org/2000/svg">
<path d="M5.83337 10.2083C5.83337 9.82156 5.98702 9.45063 6.26051 9.17714C6.534 8.90365 6.90493 8.75 7.29171 8.75H27.7084C28.0951 8.75 28.4661 8.90365 28.7396 9.17714C29.0131 9.45063 29.1667 9.82156 29.1667 10.2083C29.1667 10.5951 29.0131 10.966 28.7396 11.2395C28.4661 11.513 28.0951 11.6667 27.7084 11.6667H7.29171C6.90493 11.6667 6.534 11.513 6.26051 11.2395C5.98702 10.966 5.83337 10.5951 5.83337 10.2083ZM5.83337 17.5C5.83337 17.1132 5.98702 16.7423 6.26051 16.4688C6.534 16.1953 6.90493 16.0417 7.29171 16.0417H27.7084C28.0951 16.0417 28.4661 16.1953 28.7396 16.4688C29.0131 16.7423 29.1667 17.1132 29.1667 17.5C29.1667 17.8868 29.0131 18.2577 28.7396 18.5312C28.4661 18.8047 28.0951 18.9583 27.7084 18.9583H7.29171C6.90493 18.9583 6.534 18.8047 6.26051 18.5312C5.98702 18.2577 5.83337 17.8868 5.83337 17.5ZM5.83337 24.7917C5.83337 24.4049 5.98702 24.034 6.26051 23.7605C6.534 23.487 6.90493 23.3333 7.29171 23.3333H27.7084C28.0951 23.3333 28.4661 23.487 28.7396 23.7605C29.0131 24.034 29.1667 24.4049 29.1667 24.7917C29.1667 25.1784 29.0131 25.5494 28.7396 25.8229C28.4661 26.0964 28.0951 26.25 27.7084 26.25H7.29171C6.90493 26.25 6.534 26.0964 6.26051 25.8229C5.98702 25.5494 5.83337 25.1784 5.83337 24.7917Z" fill="#EE10B0"/>
</svg>
